<svg width="46" height="46" viewBox="0 0 46 46" fill="none" xmlns="http://www.w3.org/2000/svg">
<path d="M32.1394 17.5055H29.7316C29.208 17.5055 28.71 17.7571 28.4019 18.1832L23.0011 25.6479L17.6002 18.1832C17.2921 17.7571 16.7993 17.5055 16.2705 17.5055H13.8627C13.529 17.5055 13.3339 17.8854 13.529 18.1575L22.6673 30.787C22.8316 31.0129 23.1653 31.0129 23.3296 30.787L32.468 18.1575C32.6682 17.8854 32.4732 17.5055 32.1394 17.5055Z" fill="#DA5B00"/>
<path d="M23 0C10.2987 0 0 10.2987 0 23C0 35.7013 10.2987 46 23 46C35.7013 46 46 35.7013 46 23C46 10.2987 35.7013 0 23 0ZM23 42.0982C12.4549 42.0982 3.90179 33.5451 3.90179 23C3.90179 12.4549 12.4549 3.90179 23 3.90179C33.5451 3.90179 42.0982 12.4549 42.0982 23C42.0982 33.5451 33.5451 42.0982 23 42.0982Z" fill="#DA5B00"/>
</svg>
